<?xml version="1.0" encoding="UTF-8"?>
<!DOCTYPE svg PUBLIC "-//W3C//DTD SVG 1.1//EN" "http://www.w3.org/Graphics/SVG/1.1/DTD/svg11.dtd">
<!-- Creator: CorelDRAW (Versão de avaliação) -->
<svg xmlns="http://www.w3.org/2000/svg" xml:space="preserve" width="25.5882mm" height="20.6849mm" version="1.1" style="shape-rendering:geometricPrecision; text-rendering:geometricPrecision; image-rendering:optimizeQuality; fill-rule:evenodd; clip-rule:evenodd"
viewBox="0 0 1221797 987672"
 xmlns:xlink="http://www.w3.org/1999/xlink"
 xmlns:xodm="http://www.corel.com/coreldraw/odm/2003">
 <defs>
  <style type="text/css">
   <![CDATA[
    .fil0 {fill:#FEFEFE}
    .fil1 {fill:#FEFEFE}
   ]]>
  </style>
 </defs>
 <g id="Camada_x0020_1">
  <metadata id="CorelCorpID_0Corel-Layer"/>
  <path class="fil0" d="M685138 395768c14248,-17027 35553,-75147 52552,-81655l113393 344 -23201 47935 -68753 974 -24777 47906c36150,16010 48097,21320 77462,42324 17533,12548 43370,42778 53598,66323 22203,-10366 50699,-41641 116406,-63410 47242,-15657 94929,-20928 152709,-23339l-506 -287226 -252408 -145394c-16936,-2631 -216052,122938 -257259,139000 -1141,37473 -4560,229517 2440,252561l58344 3658z"/>
  <path class="fil0" d="M385344 314309l120732 306c10696,21124 33811,66948 46101,82538l57527 -6904 -138 -242562c-5295,-11507 -602,-5969 -14898,-14812 -4813,-2975 -10147,-5696 -15466,-8590 -39135,-21277 -208336,-123477 -221954,-124275 -18775,-1098 -217279,127006 -255335,142648l1007 290716c88335,2058 142954,12773 214997,53230 19104,10724 35596,26562 52824,33973 8972,-23053 36337,-53034 54194,-67096 20847,-16411 55231,-24839 76211,-43413l-25526 -47682 -66189 -592 -24089 -47486z"/>
  <path class="fil0" d="M252365 915939c87833,-17123 94972,-80743 139378,-54562 16344,9636 27412,15179 43838,25030 23750,14239 165902,100897 180714,101260 17896,435 188372,-104927 227545,-127737 38853,-22618 43838,29914 137105,55890l17591 -30726c-21874,-17481 -67330,-27942 -106068,-67397 -17581,-17906 -40959,-11904 -73919,-11918l-408316 -239c-22236,-81 -43905,-4584 -58153,7621 -59103,50628 -37860,29022 -114515,71145l14802 31633z"/>
  <polygon class="fil0" points="363781,791082 872355,791373 872335,753093 363566,752840 "/>
  <polygon class="fil0" points="363418,636859 871930,637036 873147,598894 363958,598770 "/>
  <path class="fil0" d="M363471 737723l508865 907 -100 -37296c-77333,24 -475188,-2483 -508741,1929l-24 34460z"/>
  <polygon class="fil0" points="872011,684674 872130,653600 365089,651995 365304,685677 "/>
  <path class="fil0" d="M13647 492119c81874,-5357 113928,-18923 199245,2698 68992,17485 93663,41746 136699,76765l10891 -38648c-95559,-79606 -210862,-101255 -360482,-70926l13647 30110z"/>
  <path class="fil0" d="M883647 572088c150088,-132769 287875,-75070 337367,-83374l783 -28902c-88072,-24428 -198500,-13188 -280183,29131 -29298,15184 -46106,29862 -67664,42405l9698 40739z"/>
  <path class="fil0" d="M667542 529602c33710,12386 38681,-5582 27608,-31380 -23702,-3605 -34183,8652 -27608,31380z"/>
  <path class="fil0" d="M564052 531875c6565,-11966 8924,-14864 3295,-31481 -44898,-6183 -49219,32655 -3295,31481z"/>
  <circle class="fil1" cx="551050" cy="515812" r="24256"/>
  <circle class="fil1" cx="683027" cy="515602" r="24256"/>
 </g>
</svg>
