<?xml version="1.0" encoding="UTF-8"?>
<!DOCTYPE svg PUBLIC "-//W3C//DTD SVG 1.1//EN" "http://www.w3.org/Graphics/SVG/1.1/DTD/svg11.dtd">
<!-- Creator: CorelDRAW (Versão de avaliação) -->
<svg xmlns="http://www.w3.org/2000/svg" xml:space="preserve" width="14.727mm" height="21.0648mm" version="1.1" style="shape-rendering:geometricPrecision; text-rendering:geometricPrecision; image-rendering:optimizeQuality; fill-rule:evenodd; clip-rule:evenodd"
viewBox="0 0 135431 193714"
 xmlns:xlink="http://www.w3.org/1999/xlink"
 xmlns:xodm="http://www.corel.com/coreldraw/odm/2003">
 <defs>
  <style type="text/css">
   <![CDATA[
    .fil0 {fill:#FEFEFE}
   ]]>
  </style>
 </defs>
 <g id="Camada_x0020_1">
  <metadata id="CorelCorpID_0Corel-Layer"/>
  <path class="fil0" d="M46444 192524l86 -46347c3102,1811 31472,31180 36899,36425 5920,5720 13604,10856 25468,11104 10411,218 22192,-4718 26534,-10897l-66979 -67280c1723,-3120 20103,-20509 24011,-24418 4256,-4256 22084,-21043 24025,-24535 -1085,-1968 -1738,-2040 -3574,-3395 -4215,-3112 -8378,-5172 -13732,-6444 -8016,-1904 -16062,-912 -23101,2085 -12328,5250 -23422,22474 -29515,25521 -445,-16289 2328,-48962 -3058,-61860 -3243,-7766 -8903,-13304 -15194,-17234 -8371,-5229 -16811,-5250 -27728,-5250 -751,6337 -187,109868 -187,119187 0,16456 -2481,41900 4910,54664 7683,13268 19843,19644 41133,18674z"/>
 </g>
</svg>
