<?xml version="1.0" encoding="UTF-8"?>
<!DOCTYPE svg PUBLIC "-//W3C//DTD SVG 1.1//EN" "http://www.w3.org/Graphics/SVG/1.1/DTD/svg11.dtd">
<!-- Creator: CorelDRAW (Versão de avaliação) -->
<svg xmlns="http://www.w3.org/2000/svg" xml:space="preserve" width="24.0741mm" height="25.3869mm" version="1.1" style="shape-rendering:geometricPrecision; text-rendering:geometricPrecision; image-rendering:optimizeQuality; fill-rule:evenodd; clip-rule:evenodd"
viewBox="0 0 169825 179085"
 xmlns:xlink="http://www.w3.org/1999/xlink"
 xmlns:xodm="http://www.corel.com/coreldraw/odm/2003">
 <defs>
  <style type="text/css">
   <![CDATA[
    .fil0 {fill:#FEFEFE}
   ]]>
  </style>
 </defs>
 <g id="Camada_x0020_1">
  <metadata id="CorelCorpID_0Corel-Layer"/>
  <g id="_1929811811456">
   <path class="fil0" d="M84541 149146c-1433,-572 -2590,-2109 -3184,-2842l-1978 -1582c-1262,-1009 187,-340 -2362,-2364 -2635,-2092 -1438,-1474 -2341,-2386 -724,-731 -2006,-1290 -2604,-2140 -1398,-1988 -2264,-1809 -3080,-2834 -823,-1036 203,-245 -1766,-1780 -1717,-1337 -862,-754 -1737,-1807 -519,-625 -184,113 -563,-719 434,-1022 1548,-1579 2388,-2246 1047,-831 627,-689 1084,-1270l2621 -2124c1032,-951 -307,-310 2383,-2347 226,-172 478,-333 669,-518 568,-551 127,-142 487,-683 617,-924 1813,-1250 2539,-2202 340,-446 37,-214 479,-691 191,-207 411,-351 652,-535 490,-375 869,-636 1351,-1029 1254,-1022 -355,-334 2409,-2318 1476,-1060 921,-1737 2553,-2204 462,292 677,741 1208,1180l2597 2145c270,234 363,289 580,602 1375,1999 1255,1170 3089,2829 1173,1062 -324,356 2360,2367 442,331 947,650 1262,1106 339,490 7,206 456,716l2601 2144c305,384 165,350 453,718 596,761 1952,1400 2614,2131 629,696 159,584 1084,1266 612,452 935,503 1084,1503 -802,689 -1723,1271 -2492,1966 -1049,947 257,393 -2372,2355 -2419,1805 -364,809 -3619,3286 -276,210 -433,296 -634,548 -296,370 -153,342 -449,721 -545,698 -1885,1306 -2490,2057 -1278,1584 -236,578 -2447,2287 -1297,1002 253,280 -2394,2334 -2262,1756 -862,1486 -2490,2357zm31075 -20622l2 -18269c333,-3073 3926,-2564 6778,-2560 4568,7 39962,-239 41360,153 1010,283 2052,1400 2223,2545 205,1383 195,17192 -42,18285 -674,3103 -3750,2473 -6867,2479 -4510,8 -39908,227 -41320,-157 -1140,-309 -2053,-1280 -2133,-2477zm24758 6219l-18 16849c7,2023 123,3284 -1133,4599 -2334,2445 -5023,1738 -9531,1739l-34109 1c-4233,-1 -8630,799 -9077,-2200 -65,-438 -100,-2342 -42,-2766 159,-1148 1290,-1391 2070,-2312 1478,-1742 1939,-1907 3663,-3439 809,-718 883,-1074 2828,-2692 682,-567 779,-933 1448,-1492 1929,-1610 1868,-1817 2832,-2691 518,-471 1000,-765 1548,-1227 619,-521 785,-942 1454,-1488l2901 -2625c866,-748 2147,-1690 2455,-3329 566,-3014 -2351,-4999 -4591,-6898l-5773 -5463c-274,-233 -506,-394 -748,-636 -333,-334 -327,-430 -610,-757 -891,-1029 -3360,-2709 -4479,-4202 -822,-1096 -1861,-1746 -2876,-2646l-1328 -1421c-885,-846 -836,-588 -813,-2214 54,-3789 8,-7601 12,-11392 7622,87 15302,23 22929,13 3590,-4 6032,-1934 6820,-4701 516,-1812 329,-9077 255,-11349 5469,158 12087,18 17765,18 4938,0 6124,857 6127,5914 3,5714 -162,12738 20,18158 -7076,-212 -14832,-139 -21930,-17 -8318,143 -6479,9571 -6483,15376 -2,2389 -281,8602 260,10546 715,2574 3071,4726 6241,4771 7066,100 14886,219 21912,-29zm-82004 -70947c1630,-353 39594,-101 42339,-104 9268,-11 12011,-1146 11998,3905l-1 15973c-4,4530 772,7716 -2014,8608 -1460,466 -37743,192 -42515,193 -13229,4 -11970,1303 -11962,-9393 3,-3549 -4,-7098 1,-10647 6,-3505 -848,-7885 2154,-8536zm23017 -59830c2834,-1 31044,-189 32391,104 1517,330 2908,1704 3234,3253 376,1788 101,22267 114,25970 16,4525 588,5890 -1654,8069 -2187,2126 -10777,1143 -15157,1142l-39038 1c-1642,0 -4965,174 -6391,-266 -674,-207 -1816,-1000 -2072,-1274 -479,-514 -927,-1208 -1064,-2087l-44 -12880c3,-2394 -347,-17563 269,-19152 523,-1349 2389,-2821 3468,-2923l25946 42zm1141 42285l-17 13721c-7636,-19 -15367,-87 -23019,1 -3126,36 -5921,1461 -6794,4794 -456,1746 -294,9188 -202,11378 -2724,-73 -19121,-178 -20826,69 -1234,179 -2892,948 -3629,1526 -4121,3228 -3165,7959 -3168,12731 -4,6965 -20,13934 -1,20900 17,6735 274,14126 -13,20783 -1636,-914 -1724,-2436 -3408,-2363 -930,40 -1516,620 -1690,1404 -424,1899 1064,1873 2809,4295 274,382 435,506 755,818 847,827 1852,2275 3627,2221 1570,-49 2765,-1610 3521,-2360 897,-890 2252,-2023 2990,-2920 1445,-1754 -250,-5164 -3132,-2546 -666,605 -889,713 -1555,1467 284,-15216 71,-31948 8,-47420 -6,-1633 188,-2592 1158,-3531 1037,-1004 1824,-1191 3529,-1199 6335,-28 12681,54 19015,-1 -53,2284 -275,9352 179,11146 751,2969 3228,4888 6834,4891 7643,8 15368,-125 23001,0l12 10979c16,2838 128,1779 -1871,3599 -466,424 -451,616 -906,1047 -634,600 -1495,1098 -2051,1710 -1809,1993 -1830,1628 -2849,2673 -418,429 -465,623 -926,1031 -1095,971 -2070,1628 -2882,2642 -362,452 -550,564 -1017,954 -1851,1548 -1861,1878 -3916,3588 -1436,1195 -975,1112 -1867,1867 -638,540 -1425,1178 -1932,1835 -3341,4326 1632,6959 2734,8234 522,605 363,535 945,1012 2976,2441 2055,2073 3844,3651 1485,1310 1650,1226 2846,2677 316,384 648,621 1031,941l7796 7197c768,958 1100,939 996,2628 -66,1069 28,2252 27,3385 -6,4958 96,9999 -6,14945 -1430,-1196 -2596,-3175 -4276,-1942 -150,109 -559,525 -661,744 -833,1814 1560,3481 3283,5119 3550,3375 3804,3265 6967,190 1588,-1544 4082,-3254 3816,-4813 -119,-695 -723,-1445 -1438,-1591 -1012,-207 -1556,190 -2087,777l-1687 1417 36 -10856c13966,274 28247,35 42244,12 4023,-7 9598,733 12418,-2029 300,-293 362,-411 691,-695 1006,-867 1624,-2005 2040,-3304 765,-2386 487,-17439 358,-20930 2635,74 18616,193 20150,-114 6819,-1369 5282,-9458 5284,-15179 1,-5147 1031,-10598 -1894,-13419 -973,-939 -1647,-1564 -3311,-1856 -1575,-277 -17501,-142 -20226,-92l-9 -20643c-178,-2156 -1223,-3703 -2274,-4817 -3019,-3198 -6310,-2497 -11455,-2500 -4613,-3 -9430,-133 -14018,17 71,-2129 248,-9585 -210,-11245 -807,-2932 -3021,-4922 -6668,-4927 -7626,-8 -15553,-204 -23144,17l20 -13750c4803,140 9805,12 14643,16 5638,4 13107,986 16536,-1741 2467,-1963 3421,-4269 3424,-7671 4,-4929 0,-9858 -1,-14788l-51 -14572c-418,-3845 -3525,-7008 -7482,-7323 -4343,-346 -10095,-21 -14595,-28 -3845,-5 -42090,-166 -44112,74 -3708,441 -6835,3653 -7056,7519 -264,4625 -22,10015 -22,14724 0,4863 -28,9733 0,14595 26,4676 2332,7621 5928,8800 2420,794 24531,384 28855,407z"/>
   <path class="fil0" d="M6280 145800c1103,-317 30829,-104 34687,-105 9844,-4 9743,-947 9743,7672 0,2892 -3,5783 -1,8675 1,2310 539,5645 -2310,6431 -1670,461 -30505,171 -34838,176 -4116,4 -9428,1095 -9606,-3444l-13 -13021c5,-3002 -506,-5567 2338,-6384zm48040 20383c321,-2366 7,-7732 8,-10449 4,-5654 1506,-13692 -7243,-13735 -5717,-28 -40041,-279 -41898,211 -6742,1777 -4980,10327 -4979,16285 1,4945 -1241,13712 7430,13770 3483,23 6974,-9 10458,-4 3436,4 29178,348 31365,-317 2475,-754 4451,-2744 4860,-5759z"/>
   <path class="fil0" d="M87620 9613c-2111,475 -1966,2669 -3306,6472 -854,2426 -1500,5035 -2365,7494 -312,888 -3428,10610 -3440,11303 -23,1409 1125,2314 2592,2037 1316,-249 1522,-1450 1948,-2724 861,-2580 6987,-21855 6979,-22594 -12,-1266 -1167,-2268 -2409,-1988z"/>
   <path class="fil0" d="M67516 23632c159,-208 106,-140 303,-346 1108,-1159 6741,-6139 6899,-7360 180,-1393 -1045,-2525 -2485,-2208 -829,183 -6457,5813 -7715,7044 -723,708 -2201,1625 -2076,3057 101,1151 1651,1876 2214,2736 566,864 3962,3884 4992,4870 1014,971 1818,1985 2761,2125 1335,199 2525,-839 2365,-2181 -78,-655 -894,-1201 -1871,-2406l-2766 -2754c-904,-862 -1900,-1592 -2619,-2578z"/>
   <path class="fil0" d="M101166 23479c-773,1948 -6953,6007 -7180,7852 -181,1464 969,2497 2495,2245 1024,-170 4705,-3914 5181,-4654 665,-1035 1562,-1673 2442,-2480 3229,-2959 2986,-2743 -2576,-7968 -450,-423 -773,-707 -1226,-1142 -453,-435 -2247,-3249 -3950,-3593 -1422,-287 -2776,947 -2458,2322 200,869 6417,6562 7272,7419z"/>
   <path class="fil0" d="M86977 86648c339,-1869 235,-4137 163,-6135 1884,-85 5370,708 5501,-1483 153,-2554 -2609,-1859 -5416,-1903l-57 -3878c2245,8 4548,222 6371,-383 1125,-3742 -1941,-2934 -5056,-2934 -5915,0 -4884,-1835 -4903,12456 -1,865 -188,3502 211,4099 645,965 2377,576 3186,162z"/>
   <path class="fil0" d="M133681 119031c44,-1051 -100,-2448 150,-3277 1551,-10 3490,-71 3451,1735 -40,1859 -2018,1666 -3601,1543zm-2019 -5329c-947,1058 -437,4270 -441,5950 -4,1689 -397,4548 354,5901 933,193 1138,102 1941,-109 305,-1268 179,-2731 193,-4137l1254 -25 1502 2442c585,912 870,2107 2307,1975 2722,-250 -560,-3208 -1060,-5044 1172,-597 1641,-775 2018,-2420 587,-2561 -1134,-4612 -3917,-4654 -1311,-20 -3015,147 -4151,119z"/>
   <path class="fil0" d="M141851 115905c-6,2113 -216,5480 459,7102 297,712 565,879 913,1253 186,200 176,235 361,416l845 534c2360,989 4161,224 5540,-1255 1536,-1646 1155,-4589 1154,-7262 0,-1206 297,-2265 -518,-3047 -1017,-260 -1160,-215 -1928,385 -279,1838 341,7008 -414,8201 -571,902 -1989,1495 -3130,705 -1676,-1160 116,-8016 -1139,-9118 -403,-352 -1355,-429 -1826,-24 -454,390 -319,1407 -318,2109z"/>
   <path class="fil0" d="M75878 70691c-168,2307 -382,14771 279,15936 1002,774 3083,717 3237,-892 162,-1691 47,-14508 -232,-15494 -1779,-564 -1930,-523 -3284,449z"/>
   <path class="fil0" d="M153602 115905c0,2159 -195,8261 190,9574 2152,200 4692,475 6758,-31 227,-875 274,-1068 -24,-1923 -1207,-413 -2887,-284 -4303,-249l-73 -2559c1864,-8 3097,460 3816,-1065 -474,-1723 -1995,-1279 -3801,-1239l-35 -2650 4446 -43c179,-1129 142,-1306 -479,-2114 -1377,-136 -2985,-68 -4389,-72 -2291,-6 -2107,221 -2107,2372z"/>
   <path class="fil0" d="M18485 160648l3224 -42c880,1464 196,2517 2401,1967 182,-1752 -974,-4845 -1554,-6551 -313,-921 -784,-2128 -1203,-2936 -733,-1412 -1962,-845 -2454,-93 -680,1041 -1759,4645 -2192,6103 -237,796 -998,2779 -429,3403 1436,1572 2100,-1680 2209,-1850zm3151 -3005c-147,-504 -325,-1000 -447,-1357 -139,-410 -349,-947 -535,-1306 -327,-628 -873,-376 -1092,-42 -301,461 -778,2051 -973,2705l3047 0z"/>
   <path class="fil0" d="M123662 116008c47,2306 -313,7634 252,9416 4031,1188 1806,-2464 2372,-9491l2943 -86c1013,-3256 -2976,-2247 -5650,-2253 -1201,-3 -2985,-393 -3031,1135 -50,1694 1892,1107 3114,1279z"/>
   <path class="fil0" d="M40712 162554c739,214 4692,370 5211,-109 629,-581 404,-1650 -617,-1812 -625,-98 -2206,-16 -2923,-12l1 -2130c2135,52 3272,469 2817,-1881l-2815 -174 -10 -2101c1365,32 2825,224 3725,-345 442,-2183 -1150,-1672 -2965,-1664 -1909,7 -2966,-546 -2983,1615 -12,1508 7,3040 11,4551 3,1304 -370,3098 547,4061z"/>
   <path class="fil0" d="M36317 160519c-2244,578 -2112,-736 -3569,-383 -1332,1503 169,2324 1912,2552 4395,574 5103,-4034 2716,-5543 -1263,-797 -3554,-784 -2802,-2477 1488,-1162 1777,635 3526,37 588,-3617 -5172,-2876 -5848,-172 -436,1746 499,2800 1571,3433 1508,889 3118,588 2495,2554z"/>
   <path class="fil0" d="M10088 162552c2531,792 2131,-363 2049,-3864 2016,85 3443,454 2915,-1908 -910,-241 -1812,-205 -2858,-140l-57 -2308c1878,51 4571,669 3594,-1765 -898,-377 -2575,-217 -3754,-236 -1978,-30 -2021,294 -2004,2214 20,2270 -216,6009 116,8007z"/>
   <path class="fil0" d="M25746 162239c833,775 4336,459 5708,320l97 -1845 -3894 -113c134,-1539 42,-3324 46,-4869 3,-1079 311,-4627 -1779,-3246 -820,542 -490,3666 -492,4824 -4,1237 -308,4035 315,4929z"/>
  </g>
 </g>
</svg>
