<?xml version="1.0" encoding="UTF-8"?>
<!DOCTYPE svg PUBLIC "-//W3C//DTD SVG 1.1//EN" "http://www.w3.org/Graphics/SVG/1.1/DTD/svg11.dtd">
<!-- Creator: CorelDRAW (Versão de avaliação) -->
<svg xmlns="http://www.w3.org/2000/svg" xml:space="preserve" width="95.4819mm" height="6.1638mm" version="1.1" style="shape-rendering:geometricPrecision; text-rendering:geometricPrecision; image-rendering:optimizeQuality; fill-rule:evenodd; clip-rule:evenodd"
viewBox="0 0 690235 44558"
 xmlns:xlink="http://www.w3.org/1999/xlink"
 xmlns:xodm="http://www.corel.com/coreldraw/odm/2003">
 <defs>
  <style type="text/css">
   <![CDATA[
    .fil0 {fill:#25295D;fill-rule:nonzero}
    .fil2 {fill:#4D95CA;fill-rule:nonzero}
    .fil1 {fill:#9251AE;fill-rule:nonzero}
   ]]>
  </style>
 </defs>
 <g id="Camada_x0020_1">
  <metadata id="CorelCorpID_0Corel-Layer"/>
  <g id="_1929566626320">
   <path class="fil0" d="M0 39615l0 -35951c0,-1875 1520,-3395 3395,-3395l17911 0c75,0 150,3 224,7 1694,-33 3381,-60 4948,7 1865,80 3615,288 5135,755 1743,536 3134,1379 4254,2433 1099,1034 1905,2251 2509,3566 551,1200 928,2483 1139,3761 218,1329 260,2672 129,3926 -137,1311 -452,2527 -933,3617 -510,1154 -1209,2186 -2083,3065 -72,72 -145,144 -218,213 74,70 147,141 218,213 874,879 1573,1911 2083,3065 481,1091 797,2306 933,3617 131,1254 90,2597 -129,3927 -210,1277 -588,2560 -1139,3760 -604,1315 -1410,2532 -2509,3566 -1120,1055 -2511,1897 -4254,2433 -1520,467 -3270,676 -5135,755 -1651,70 -3436,35 -5220,1l-17863 39c-1867,0 -3382,-1514 -3382,-3382l-13 0zm6789 -32556l0 29167 14569 -32c1659,33 3318,65 4855,-1 1324,-56 2509,-187 3411,-463 680,-209 1201,-518 1600,-895 421,-396 744,-892 998,-1444 289,-630 492,-1327 608,-2036 122,-740 146,-1475 76,-2149 -60,-578 -197,-1106 -403,-1575 -179,-407 -407,-752 -677,-1023 -275,-278 -624,-514 -1019,-713 -491,-247 -1054,-430 -1649,-557 -504,-107 -2728,-163 -5353,-192 -2527,67 -5169,33 -7406,4 -1071,-14 -2047,-26 -2824,-25 -1867,0 -3381,-1514 -3381,-3382 0,-1867 1514,-3382 3381,-3382l893 -1c1801,-4 5503,-12 8929,32 2253,-53 4345,-189 5761,-489 595,-127 1158,-309 1649,-557 395,-199 743,-435 1019,-713 270,-271 497,-616 677,-1023 207,-468 343,-998 403,-1575 70,-674 46,-1409 -76,-2149 -116,-710 -319,-1406 -608,-2036 -254,-552 -576,-1048 -998,-1444 -400,-377 -921,-686 -1600,-895 -902,-277 -2087,-407 -3411,-463 -1442,-61 -2992,-37 -4548,-7 -119,12 -238,19 -359,19l-14516 0z"/>
   <path class="fil0" d="M105844 37391c1867,154 3257,1793 3103,3660 -153,1867 -1792,3257 -3660,3103 -1289,-106 -2610,-413 -3930,-886 -1322,-475 -2592,-1100 -3778,-1841 -3518,-2200 -6169,-5157 -7951,-8491 -1897,-3547 -2792,-7512 -2685,-11432l2 -48c118,-3930 1230,-7811 3339,-11184 1919,-3069 4659,-5725 8219,-7629 983,-526 1963,-973 3027,-1309 1115,-351 2334,-601 3755,-718 1868,-153 3507,1236 3660,3103 154,1867 -1235,3506 -3103,3660 -884,73 -1619,220 -2271,426 -702,221 -1305,494 -1887,805 -2446,1307 -4328,3133 -5647,5242 -1479,2364 -2256,5075 -2333,7811l-1 25c-76,2770 554,5568 1889,8064 1235,2310 3090,4371 5564,5918 836,522 1671,941 2478,1231 719,257 1460,427 2206,488z"/>
   <path class="fil1" d="M114028 44155c-1868,153 -3507,-1236 -3660,-3103 -154,-1867 1235,-3506 3103,-3660 746,-61 1487,-231 2206,-488 807,-290 1642,-709 2477,-1231 2475,-1548 4330,-3608 5565,-5918 1334,-2496 1965,-5294 1889,-8064l-1 -25c-77,-2735 -854,-5447 -2333,-7811 -1319,-2109 -3201,-3935 -5647,-5242 -582,-312 -1186,-584 -1887,-805 -653,-206 -1387,-353 -2271,-426 -1867,-154 -3257,-1793 -3103,-3660 153,-1867 1792,-3257 3660,-3103 1422,117 2640,367 3755,718 1065,336 2044,784 3027,1309 3560,1903 6300,4560 8219,7629 2109,3373 3221,7254 3339,11184l1 48c108,3920 -788,7885 -2684,11432 -1783,3334 -4434,6291 -7952,8491 -1186,742 -2455,1366 -3777,1841 -1319,473 -2641,780 -3930,886z"/>
   <path class="fil2" d="M154722 37391c1868,154 3257,1793 3103,3660 -154,1867 -1793,3257 -3660,3103 -1290,-106 -2611,-413 -3930,-886 -1321,-475 -2592,-1100 -3777,-1841 -3518,-2200 -6169,-5157 -7952,-8491 -1896,-3547 -2791,-7512 -2684,-11432l2 -48c117,-3930 1230,-7811 3339,-11184 1919,-3069 4658,-5725 8219,-7629 982,-526 1962,-973 3027,-1309 1115,-351 2334,-601 3755,-718 1867,-153 3506,1236 3660,3103 154,1867 -1235,3506 -3103,3660 -883,73 -1618,220 -2270,426 -702,221 -1305,494 -1887,805 -2445,1307 -4327,3133 -5647,5242 -1478,2364 -2256,5075 -2333,7811l0 25c-76,2770 554,5568 1888,8064 1235,2310 3090,4371 5565,5918 835,522 1670,941 2478,1231 719,257 1460,427 2206,488z"/>
   <path class="fil2" d="M162906 44155c-1867,153 -3506,-1236 -3660,-3103 -154,-1867 1235,-3506 3103,-3660 746,-61 1487,-231 2206,-488 808,-290 1642,-709 2478,-1231 2474,-1548 4329,-3608 5565,-5918 1334,-2496 1964,-5294 1888,-8064l0 -25c-77,-2735 -854,-5447 -2333,-7811 -1319,-2109 -3202,-3935 -5647,-5242 -583,-312 -1186,-584 -1887,-805 -652,-206 -1387,-353 -2270,-426 -1868,-154 -3257,-1793 -3103,-3660 154,-1867 1793,-3257 3660,-3103 1422,117 2641,367 3755,718 1066,336 2045,784 3027,1309 3561,1903 6300,4560 8219,7629 2109,3373 3222,7254 3339,11184l2 48c107,3920 -788,7885 -2684,11432 -1783,3334 -4434,6291 -7952,8491 -1186,742 -2456,1366 -3777,1841 -1319,473 -2641,780 -3930,886z"/>
   <path class="fil1" d="M194651 40908c0,1874 -1520,3395 -3395,3395 -1875,0 -3395,-1520 -3395,-3395l0 -36536c0,-1875 1520,-3395 3395,-3395 1064,0 2014,490 2636,1256l17710 19404 17840 -19546c1260,-1384 3403,-1486 4788,-226 734,668 1107,1585 1107,2506l6 0 0 36536c0,1874 -1520,3395 -3395,3395 -1874,0 -3395,-1520 -3395,-3395l0 -27790c-4803,5263 -9717,10508 -14446,15828 -71,77 -146,153 -226,226 -1384,1259 -3527,1159 -4787,-226l-14446 -15828 0 27790z"/>
   <path class="fil0" d="M263168 39615l0 -35951c0,-1875 1520,-3395 3395,-3395l17911 0c75,0 150,3 224,7 1694,-33 3381,-60 4949,7 1864,80 3614,288 5135,755 1743,536 3134,1379 4254,2433 1099,1034 1906,2251 2509,3566 551,1200 929,2483 1139,3761 218,1329 260,2672 129,3926 -137,1311 -453,2527 -934,3617 -510,1154 -1209,2186 -2083,3065 -72,72 -145,144 -218,213 74,70 147,141 218,213 874,879 1573,1911 2083,3065 481,1091 797,2306 934,3617 130,1254 89,2597 -129,3927 -210,1277 -588,2560 -1139,3760 -604,1315 -1410,2532 -2509,3566 -1120,1055 -2511,1897 -4254,2433 -1520,467 -3270,676 -5135,755 -1652,70 -3437,35 -5221,1l-17863 39c-1867,0 -3382,-1514 -3382,-3382l-13 0zm6789 -32556l0 29167 14569 -32c1659,33 3319,65 4855,-1 1325,-56 2509,-187 3411,-463 680,-209 1201,-518 1601,-895 421,-396 744,-892 997,-1444 289,-630 492,-1327 608,-2036 122,-740 146,-1475 76,-2149 -60,-578 -196,-1106 -403,-1575 -180,-407 -408,-752 -677,-1023 -276,-278 -624,-514 -1019,-713 -491,-247 -1054,-430 -1649,-557 -504,-107 -2728,-163 -5353,-192 -2527,67 -5169,33 -7406,4 -1071,-14 -2047,-26 -2823,-25 -1868,0 -3382,-1514 -3382,-3382 0,-1867 1514,-3382 3382,-3382l892 -1c1801,-4 5503,-12 8929,32 2253,-53 4345,-189 5761,-489 595,-127 1158,-309 1649,-557 395,-199 743,-435 1019,-713 269,-271 497,-616 677,-1023 207,-468 343,-998 403,-1575 70,-674 46,-1409 -76,-2149 -116,-710 -319,-1406 -608,-2036 -253,-552 -576,-1048 -997,-1444 -400,-377 -922,-686 -1601,-895 -902,-277 -2086,-407 -3411,-463 -1442,-61 -2992,-37 -4548,-7 -118,12 -238,19 -359,19l-14516 0z"/>
   <path class="fil0" d="M354436 8120c-1874,0 -3395,-1520 -3395,-3395 0,-1874 1520,-3395 3395,-3395l36791 0c1875,0 3395,1520 3395,3395 0,1875 -1520,3395 -3395,3395l-15001 0 0 32069c0,1874 -1520,3395 -3395,3395 -1874,0 -3395,-1520 -3395,-3395l0 -32069 -15001 0z"/>
   <path class="fil2" d="M524381 3455c0,-1874 1520,-3395 3395,-3395 1875,0 3395,1520 3395,3395l0 36729c0,1875 -1520,3395 -3395,3395 -1874,0 -3395,-1520 -3395,-3395l0 -36729z"/>
   <path class="fil0" d="M599549 3578c0,-1874 1520,-3395 3395,-3395 1874,0 3395,1520 3395,3395l0 25060c0,132 -8,262 -22,391 -84,2648 217,4518 885,5646 373,630 985,967 1822,1025l0 -7 27836 0c1874,0 3395,1520 3395,3395 0,1874 -1520,3395 -3395,3395l-27836 0 0 -12 -119 -1c-3355,-127 -5883,-1552 -7538,-4347 -1326,-2239 -1942,-5338 -1814,-9339l-4 -145 0 -25060z"/>
   <path class="fil0" d="M547893 41163c0,1875 -1520,3395 -3395,3395 -1874,0 -3395,-1520 -3395,-3395l0 -36662c0,-1874 1520,-3395 3395,-3395l25135 0c111,0 221,6 330,16l7733 71c2550,22 5008,1037 6961,2627 1979,1612 3492,3857 4090,6286 322,1307 518,2918 534,4551 14,1507 -125,3048 -463,4413 -740,2995 -2135,5084 -4126,6510 -1371,981 -2952,1583 -4739,1903l9395 10334c1259,1384 1159,3528 -226,4788 -1384,1259 -3528,1158 -4787,-226l-13193 -14512c-514,2 -895,2 -1275,2l-16048 0c-1875,0 -3395,-1520 -3395,-3395 0,-1874 1520,-3395 3395,-3395l16048 0c1950,0 3901,0 4096,-2 1199,-14 2358,-46 3435,-109 1439,-85 2573,-353 3342,-904 677,-484 1180,-1317 1501,-2612 202,-819 286,-1780 276,-2742 -10,-1077 -138,-2135 -348,-2986 -243,-987 -904,-1937 -1783,-2653 -831,-676 -1806,-1107 -2743,-1115l-7741 -70c-88,7 -178,11 -268,11l-21740 0 0 33267z"/>
   <path class="fil2" d="M436715 1580c1868,14 3370,1540 3356,3408 -14,1867 -1540,3369 -3408,3355 -2910,-33 -5819,-67 -8501,-69 -2633,-2 -5092,27 -7206,118 -1955,84 -3523,222 -4846,465 -1194,220 -2183,528 -3101,969 -862,414 -1719,980 -2529,1624 -926,737 -1752,1554 -2430,2355 -629,743 -1122,1454 -1509,2152 -383,690 -678,1392 -912,2120 -152,470 -283,923 -393,1366l28953 0c1875,0 3395,1520 3395,3395 0,1875 -1520,3395 -3395,3395l-28953 0c110,442 241,896 393,1366 234,728 529,1430 912,2120 387,698 880,1410 1509,2152 679,801 1504,1619 2430,2355 810,645 1668,1210 2529,1625 917,440 1907,748 3101,968 1322,244 2890,381 4846,465 2114,91 4574,120 7206,118 2681,-2 5592,-36 8501,-69 1868,-14 3394,1488 3408,3356 14,1867 -1488,3393 -3356,3408 -2907,33 -5815,67 -8554,69 -2788,2 -5354,-27 -7470,-118 -2275,-98 -4144,-266 -5801,-571 -1786,-329 -3317,-813 -4797,-1525 -1392,-669 -2681,-1507 -3829,-2420 -1285,-1022 -2435,-2162 -3385,-3283 -907,-1071 -1645,-2143 -2252,-3239 -612,-1105 -1079,-2208 -1444,-3341 -789,-2449 -1184,-4630 -1184,-6829 0,-2199 395,-4380 1184,-6829 365,-1132 831,-2236 1444,-3340 607,-1097 1345,-2169 2252,-3239 951,-1122 2101,-2262 3385,-3283 1149,-914 2438,-1752 3829,-2421 1480,-712 3012,-1196 4797,-1525 1657,-306 3526,-474 5801,-572 2117,-91 4682,-119 7470,-117 2738,2 5647,35 8554,69z"/>
   <path class="fil1" d="M310695 3214c95,-1867 1687,-3304 3554,-3209 1867,95 3304,1687 3209,3554l-3 49c-101,2054 -200,4107 -130,6087 33,939 108,1903 248,2870 127,875 307,1715 559,2486 228,699 518,1341 891,1922 359,557 808,1075 1372,1551 607,513 1328,980 2074,1379 855,458 1773,836 2609,1102 1353,429 2454,498 3534,540 103,-3 193,-3 296,0 1080,-42 2180,-111 3534,-540 836,-266 1753,-646 2608,-1103 746,-399 1468,-866 2074,-1379 565,-476 1014,-994 1373,-1551 374,-581 663,-1223 891,-1922 252,-771 432,-1611 558,-2486 140,-967 215,-1931 248,-2870 71,-1994 -30,-4063 -132,-6131l-1 -5c-95,-1867 1342,-3458 3210,-3554 1867,-95 3458,1342 3554,3209l0 18c108,2190 215,4379 133,6701 -43,1222 -135,2435 -301,3586 -179,1244 -444,2466 -823,3627 -403,1233 -932,2395 -1634,3487 -717,1113 -1601,2136 -2699,3064 -960,810 -2096,1547 -3267,2174 -1298,695 -2610,1246 -3749,1607 -851,270 -1616,447 -2329,566l0 11923c0,1874 -1520,3395 -3395,3395 -1874,0 -3395,-1520 -3395,-3395l0 -11923c-713,-119 -1478,-296 -2328,-566 -1139,-361 -2451,-912 -3749,-1607 -1171,-627 -2308,-1363 -3267,-2174 -1097,-927 -1982,-1950 -2699,-3064 -703,-1092 -1231,-2253 -1634,-3487 -379,-1161 -643,-2383 -823,-3627 -166,-1151 -258,-2364 -301,-3586 -82,-2305 23,-4480 130,-6654l2 -65z"/>
   <path class="fil0" d="M494179 26316c-1875,0 -3395,-1520 -3395,-3395 0,-1874 1520,-3395 3395,-3395l16384 0c1875,0 3395,1520 3395,3395l0 16452c0,1874 -1520,3395 -3395,3395l-18947 0c-1920,0 -3841,0 -5999,-332 -1113,-171 -2269,-432 -3443,-818 -1188,-390 -2381,-907 -3549,-1584 -1177,-682 -2315,-1522 -3355,-2477 -1024,-940 -1957,-1994 -2744,-3125 -698,-1000 -1291,-2093 -1787,-3181 -599,-1314 -1022,-2542 -1300,-3565 -453,-1665 -665,-3557 -654,-5454 12,-1940 254,-3864 708,-5534 278,-1022 702,-2250 1300,-3564 495,-1088 1089,-2180 1786,-3181 787,-1130 1720,-2185 2744,-3125 1040,-956 2178,-1794 3355,-2477 1029,-597 2103,-1074 3158,-1453 1227,-440 2409,-734 3450,-923 977,-177 1820,-266 2861,-309 1209,-49 2200,-49 3621,-49l12885 0c1875,0 3395,1520 3395,3395 0,1874 -1520,3395 -3395,3395l-12885 0c-1642,0 -2790,0 -3356,23 -733,30 -1303,88 -1933,202 -716,130 -1525,331 -2362,632 -659,236 -1350,547 -2044,948 -747,433 -1480,975 -2161,1602 -653,600 -1253,1278 -1763,2011 -489,703 -886,1426 -1203,2120 -387,851 -687,1739 -902,2529 -318,1171 -488,2485 -496,3784 -7,1260 136,2526 442,3650 215,790 515,1679 902,2530 316,694 713,1416 1203,2120 510,732 1110,1410 1763,2011 681,626 1415,1168 2161,1601 731,424 1488,751 2250,1001 776,254 1570,432 2356,553 1640,252 3316,252 4991,252l15552 0 0 -9663 -12990 0z"/>
   <path class="fil1" d="M650263 43077c-1874,0 -3395,-1520 -3395,-3395 0,-1875 1520,-3395 3395,-3395 1495,0 4069,103 7003,220 7796,312 18387,736 21750,-557 672,-258 1314,-556 1919,-914 499,-296 930,-614 1272,-966 861,-884 1261,-1983 1265,-3062 1,-622 -122,-1244 -361,-1822 -231,-557 -571,-1071 -1011,-1499 -782,-762 -1903,-1257 -3308,-1261 -3500,-11 -6403,-62 -8982,-108 -2513,-43 -4719,-82 -6758,-74 -2411,11 -4055,-74 -5297,-233 -1427,-181 -2362,-458 -3244,-797 -930,-357 -1748,-797 -2474,-1276 -717,-473 -1347,-977 -1906,-1475 -1499,-1336 -2398,-2782 -2929,-4290 -498,-1413 -633,-2811 -635,-4195 -2,-1388 143,-2815 644,-4259 541,-1556 1444,-3034 2921,-4350 558,-497 1189,-1001 1906,-1475 727,-479 1546,-919 2474,-1276 934,-359 1887,-604 3296,-765 1153,-132 2752,-211 5165,-265 5100,-113 12341,-113 19582,-113 1875,0 3395,1520 3395,3395 0,1874 -1520,3395 -3395,3395 -7768,0 -15536,0 -19449,87 -2093,46 -3502,118 -4555,238 -798,91 -1253,197 -1625,340 -377,145 -765,360 -1149,613 -392,259 -775,568 -1137,891 -546,487 -864,985 -1037,1485 -213,612 -274,1323 -273,2057 1,690 57,1355 264,1940 173,492 491,985 1046,1479 362,323 745,633 1137,891 384,254 771,468 1149,613 425,163 898,300 1679,399 966,123 2329,189 4422,180 2144,-10 4363,29 6890,74 2589,46 5504,97 8876,107 3333,11 6063,1256 8028,3171 1110,1081 1969,2375 2549,3781 572,1385 870,2884 865,4394 -8,2769 -1013,5563 -3174,7783 -794,815 -1694,1498 -2678,2080 -878,520 -1873,977 -2953,1392 -4678,1799 -16054,1344 -24429,1008 -2581,-103 -4848,-194 -6738,-194z"/>
   <path class="fil0" d="M47134 3578c0,-1874 1520,-3395 3395,-3395 1875,0 3395,1520 3395,3395l0 25060c0,132 -8,262 -23,391 -84,2648 218,4518 886,5646 373,630 985,967 1822,1025l0 -7 27835 0c1875,0 3395,1520 3395,3395 0,1874 -1520,3395 -3395,3395l-27835 0 0 -12 -119 -1c-3355,-127 -5883,-1552 -7538,-4347 -1326,-2239 -1942,-5338 -1814,-9339l-4 -145 0 -25060z"/>
  </g>
 </g>
</svg>
