<?xml version="1.0" encoding="UTF-8"?>
<!DOCTYPE svg PUBLIC "-//W3C//DTD SVG 1.1//EN" "http://www.w3.org/Graphics/SVG/1.1/DTD/svg11.dtd">
<!-- Creator: CorelDRAW (Versão de avaliação) -->
<svg xmlns="http://www.w3.org/2000/svg" xml:space="preserve" width="40.1941mm" height="41.7789mm" version="1.1" style="shape-rendering:geometricPrecision; text-rendering:geometricPrecision; image-rendering:optimizeQuality; fill-rule:evenodd; clip-rule:evenodd"
viewBox="0 0 152462 158473"
 xmlns:xlink="http://www.w3.org/1999/xlink"
 xmlns:xodm="http://www.corel.com/coreldraw/odm/2003">
 <defs>
  <style type="text/css">
   <![CDATA[
    .str0 {stroke:#E7E1F0;stroke-width:4014;stroke-linecap:round;stroke-linejoin:round;stroke-miterlimit:22.9256}
    .fil0 {fill:#45307B}
   ]]>
  </style>
 </defs>
 <g id="Camada_x0020_1">
  <metadata id="CorelCorpID_0Corel-Layer"/>
  <path class="fil0 str0" d="M150396 93352c125,-16090 32,-18614 -98,-28230 -130,-9616 -514,-12760 -1132,-15443 -4471,-19405 -35039,-31792 -51439,-40255 -8546,-4410 -11500,-5551 -14159,-6268 -5676,-1531 -9096,-1531 -14771,0 -2659,717 -5613,1858 -14159,6268 -16399,8463 -46968,20850 -51438,40255 -618,2683 -1002,5827 -1132,15443 -130,9616 -27,12141 98,28230 130,9616 514,12760 1132,15443 4470,19405 35039,31792 51438,40255 8546,4410 11500,5551 14159,6268 5675,1531 9096,1531 14771,0 2659,-717 5613,-1857 14159,-6268 16399,-8463 46968,-20850 51439,-40255 618,-2683 1001,-5827 1132,-15443z"/>
 </g>
</svg>
