<?xml version="1.0" encoding="UTF-8"?>
<!DOCTYPE svg PUBLIC "-//W3C//DTD SVG 1.1//EN" "http://www.w3.org/Graphics/SVG/1.1/DTD/svg11.dtd">
<!-- Creator: CorelDRAW (Versão de avaliação) -->
<svg xmlns="http://www.w3.org/2000/svg" xml:space="preserve" width="21.0648mm" height="21.4447mm" version="1.1" style="shape-rendering:geometricPrecision; text-rendering:geometricPrecision; image-rendering:optimizeQuality; fill-rule:evenodd; clip-rule:evenodd"
viewBox="0 0 182258 185545"
 xmlns:xlink="http://www.w3.org/1999/xlink"
 xmlns:xodm="http://www.corel.com/coreldraw/odm/2003">
 <defs>
  <style type="text/css">
   <![CDATA[
    .fil0 {fill:#FEFEFE}
   ]]>
  </style>
 </defs>
 <g id="Camada_x0020_1">
  <metadata id="CorelCorpID_0Corel-Layer"/>
  <g id="_1929552398288">
   <path class="fil0" d="M62924 14572c10587,-4823 15765,11087 6547,15109 -9875,4309 -16406,-10618 -6547,-15109zm-21863 122763c3284,-10457 -4644,-23539 7354,-38144 16317,-19861 61588,-1391 77021,-13574 11437,-9030 9653,-17816 9653,-35021 0,-29617 5172,-49595 -39762,-50511 -19003,-388 -46003,-307 -48197,19834 -431,3954 -631,18377 118,21903l43691 259 0 4966c-7834,886 -19651,202 -27914,202 -29568,0 -53524,-4820 -60256,23119 -3916,16249 -3887,33328 1444,48864 7110,20722 20740,18102 36849,18102z"/>
   <path class="fil0" d="M107588 163640c-1171,-11203 15376,-12392 16291,-1959 955,10885 -15227,12141 -16291,1959zm-16271 -26406c18654,0 37308,-1 55962,0 10093,1 17280,784 23081,-5281 3822,-3996 6954,-11532 9035,-18371 4786,-15729 3140,-33049 -1749,-48416 -5602,-17606 -16299,-19475 -36992,-17684 -2051,16547 3000,26380 -7400,38255 -17497,19980 -59881,324 -77299,13950 -10607,8298 -8997,19331 -8997,35867 0,7684 -162,15539 -2,23201 169,8086 2873,11651 6920,15453 7305,6863 20939,10672 33703,11271 12531,589 28629,-2834 37270,-8468 10731,-6995 11527,-17526 10003,-34146l-43909 -22 376 -5609z"/>
  </g>
 </g>
</svg>
