<?xml version="1.0" encoding="UTF-8"?>
<!DOCTYPE svg PUBLIC "-//W3C//DTD SVG 1.1//EN" "http://www.w3.org/Graphics/SVG/1.1/DTD/svg11.dtd">
<!-- Creator: CorelDRAW (Versão de avaliação) -->
<svg xmlns="http://www.w3.org/2000/svg" xml:space="preserve" width="23.7143mm" height="12.3911mm" version="1.1" style="shape-rendering:geometricPrecision; text-rendering:geometricPrecision; image-rendering:optimizeQuality; fill-rule:evenodd; clip-rule:evenodd"
viewBox="0 0 374882 195882"
 xmlns:xlink="http://www.w3.org/1999/xlink"
 xmlns:xodm="http://www.corel.com/coreldraw/odm/2003">
 <defs>
  <style type="text/css">
   <![CDATA[
    .fil0 {fill:#FEFEFE}
   ]]>
  </style>
 </defs>
 <g id="Camada_x0020_1">
  <metadata id="CorelCorpID_0Corel-Layer"/>
  <path class="fil0" d="M231292 151445l-115258 -60127c-14804,-9632 -105187,-58530 -116012,-59036 -909,7558 27070,75054 31966,86866 2796,6744 6658,11636 9796,19628 2945,7501 5062,13919 8020,21430 8299,21072 10081,33000 24953,34057 18960,1348 93868,63 119179,63 32129,0 85444,4325 113783,-1453 -4646,-5716 -29433,-16309 -37998,-21017 -12514,-6880 -25511,-13933 -38428,-20412z"/>
  <path class="fil0" d="M123867 89712c781,711 912,918 2474,1884 975,604 1371,813 2691,1453 43729,21213 95316,48961 137945,72169l42150 22290c4581,3337 1426,3070 3990,2880 4020,-6935 -2700,-12470 -7536,-19586l-82731 -123382c-7518,-11780 -15049,-23338 -23371,-35510 -3668,-5365 -8132,-15756 -15973,-10435 -3873,2627 -32442,47381 -35852,52672 -8032,12471 -16360,23529 -23787,35565z"/>
  <path class="fil0" d="M318410 180979c2819,-2801 13867,-33287 15334,-37132 7756,-20304 41930,-102390 41124,-112006 -11489,740 -48122,22649 -59905,28967l-56823 30241 60271 89930z"/>
 </g>
</svg>
