<?xml version="1.0" encoding="UTF-8"?>
<!DOCTYPE svg PUBLIC "-//W3C//DTD SVG 1.1//EN" "http://www.w3.org/Graphics/SVG/1.1/DTD/svg11.dtd">
<!-- Creator: CorelDRAW (Versão de avaliação) -->
<svg xmlns="http://www.w3.org/2000/svg" xml:space="preserve" width="23.8392mm" height="20.7424mm" version="1.1" style="shape-rendering:geometricPrecision; text-rendering:geometricPrecision; image-rendering:optimizeQuality; fill-rule:evenodd; clip-rule:evenodd"
viewBox="0 0 1231708 1071704"
 xmlns:xlink="http://www.w3.org/1999/xlink"
 xmlns:xodm="http://www.corel.com/coreldraw/odm/2003">
 <defs>
  <style type="text/css">
   <![CDATA[
    .fil0 {fill:#FEFEFE}
   ]]>
  </style>
 </defs>
 <g id="Camada_x0020_1">
  <metadata id="CorelCorpID_0Corel-Layer"/>
  <path class="fil0" d="M983033 286769c7409,10308 15593,48397 15753,63990 10,1126 -351,11439 -827,9925 -21,-67 -93,248 -114,532l-24315 6030 -33873 -69363 43375 -11114zm48753 -11057l1039 76039 -25668 5751 -18538 -73068 43168 -8721zm65483 150667c2217,-2015 3209,-3178 5306,-5379 6107,-6386 8277,-6577 15123,-16993 15924,-24232 25555,-49125 24769,-81939 -605,-25017 -8758,-48206 -19592,-65721 -9068,-14663 -20708,-30458 -36270,-38616 -9248,-4841 -7161,3017 -7161,-20574 -31626,2997 -50288,5880 -78912,-9104 -5642,-2955 -14131,-9135 -18239,-12901 -22604,-20760 -30117,-45705 -32871,-76075 -460,-5074 0,-10178 -310,-15170l-9667 868c-171,8577 2227,17520 2909,26232 2056,26402 -3353,47234 -18642,67901 -17407,23529 -40766,40182 -70882,45323 -44269,7554 -81030,-7864 -105928,-35919 -8985,-10127 -16885,-23653 -21106,-37252 -2971,-9564 -3219,-14586 -5384,-23333l-167686 45395c-610,5683 -2206,8293 -7450,8194 -2103,-41 -2062,284 -3896,909 -4691,1602 -10711,-1256 -16988,-2428 -7388,-1374 -9889,-3054 -17567,-1028 -5647,1488 -10411,3870 -14338,6603 -15397,10700 -27776,32798 -17836,59257 2971,7910 8298,12912 13124,18972 2552,3203 2258,3152 956,7502 -3307,11057 -8732,18993 -13289,28510 -8892,18569 -17138,39417 -24537,59614 -23023,62807 -27916,108868 -36518,174016 -1700,12875 -1710,26671 -2315,39789 -615,13434 -3157,24547 -2346,38544 682,11801 3415,27389 2310,38983 -6107,-2552 -12772,-6520 -18791,-9372 -6433,-3038 -12777,-5942 -19282,-8949 -11992,-5539 -27534,-12937 -40404,-16487 -15345,-4232 -29316,-8370 -44449,-12447 -13284,-3581 -36813,-9006 -46470,1359 7569,646 16590,765 24247,956 13480,336 51993,3167 62342,13103 -455,527 72,10 -770,770 -8649,7771 -16239,4604 -19613,7146 -13289,10013 -16477,9688 -35237,10933 -15893,1054 -34390,1653 -49420,6546 -7156,2330 -7848,3384 -6975,10654 1602,13351 -4960,18342 -12912,23441 -16017,10271 -18719,12204 -32819,23095 -2764,2134 -7828,6288 -9848,8634 -3896,4511 -2310,8892 -1731,15753 491,5797 858,11625 1219,17577l-6784 -8122c-2165,-2775 -4139,-5911 -6603,-8050 -8944,8551 -22579,30913 -22889,44310 -253,10922 4795,17340 9124,24490 5559,9192 7182,12912 6598,26242 -2573,450 -10773,-7233 -12064,-8644 -3782,-4128 -5131,-7177 -8344,-12219 -3276,14999 4769,58208 14296,70981 13873,18600 31388,17474 37252,48950 -8024,-2950 -27234,-21060 -29941,-22408 1581,6365 8101,21742 10855,28712 1586,4015 615,3777 4350,5859l18745 10426c30432,17298 136686,71218 162654,72283l822 -1173c284,-450 532,-920 718,-1214 3586,-5621 28402,-18936 34054,-22372l55961 -34002c10700,-6557 27399,-17340 37381,-22899 5461,-3043 13521,-7869 19876,-9636 1225,1323 3172,4645 4226,6288 1524,2351 2697,4206 4185,6546 7910,12426 18476,24211 27828,34906 3405,3891 7270,6732 10545,10354 2408,2656 2759,3147 5410,5296l5415 4805c19778,18239 50396,38978 75667,49781 19432,8308 42150,13904 62559,21101 7394,2609 9920,2702 17624,3446 20150,1943 37588,4660 58394,4371 55000,-749 85442,-10416 131886,-35583 5885,-3193 23514,-11625 26846,-14989l8313 -7719c1054,-904 1566,-1199 2666,-2222 15877,-14736 27627,-9863 51543,-9269 10969,274 25658,-3477 35557,-6247 11413,-3198 20626,-6588 30644,-11176 2733,-1256 4748,-2005 7786,-2899 3612,-1059 6665,-8050 17717,-13439 9812,-4790 19417,-8132 31109,-10690 5156,-1126 9548,-4304 13986,-6929 4505,-2666 8189,-6298 11351,-9564l15485 -16125c6660,-5875 17970,-21969 22646,-29388 36570,-58095 56757,-128357 49962,-197896 -2423,-24842 -10209,-45917 -14338,-69105 -7688,713 -14074,2284 -21395,3529 -14937,2537 -31140,1963 -46335,853 -4567,-336 -18445,-3374 -20574,-3069 -1385,6272 11517,45323 13888,53047 4697,15299 23617,66398 12121,80916 -2175,2749 -7115,4221 -11408,5611 -32969,10695 -85608,27503 -118515,32726 -12741,2025 -15397,966 -20987,-10618 -3803,-7884 -6288,-15784 -8907,-24640 -8783,-29724 -18399,-79242 -29363,-104761 -3663,796 -6763,4185 -8851,6293 -5813,5864 -18807,13439 -25958,18275 -6081,4118 -11780,7874 -17758,11920 -31744,21509 -62714,34379 -102167,45669 -42471,12157 -106993,29616 -145847,444 -25513,-19153 -37908,-50035 -31347,-83308 1524,-7729 4722,-15361 8045,-21602 3441,-6474 7621,-11858 11935,-17257 26542,-33253 128104,-57268 174357,-61959 18993,-1927 37516,-2077 56793,-1529 18430,527 35640,4867 53574,5368 -1199,-11615 -2842,-17624 5265,-23932 5208,-4046 15345,-6350 22734,-8365 16141,-4397 31796,-9114 48097,-13666 16069,-4490 31507,-10091 47710,-14059 13604,-3333 25813,-4102 31734,10308 992,2408 2857,9424 3880,11114 4635,-672 10964,-4356 15309,-6464 24196,-11770 32447,-9884 49265,-16368 -3782,-11351 -18838,-28944 -25177,-36425l-11217 -12116c-1281,-1411 -2604,-2465 -3885,-3880 -11201,-12462 -7926,-6929 -18838,-11708 842,-2470 7301,-10948 8892,-12405z"/>
  <path class="fil0" d="M948028 653814c-3224,-9822 -7915,-29192 -11057,-40378 -1540,-5487 -10018,-38342 -11424,-40605 -17582,-1085 -34519,-4650 -51750,-5363 -54039,-2237 -98416,4232 -149608,20285 -28546,8959 -59578,20331 -76540,37273 -20223,20207 -31672,55568 -13242,89638 3059,5663 7900,11475 12286,15919l7678 6908c36699,28619 107571,8964 146260,-3250 28427,-8969 56679,-19887 79919,-33873 10922,-6572 22930,-15836 34090,-22816 8566,-5363 17427,-11243 24718,-18078 6309,-5916 5838,-3524 8670,-5658z"/>
  <path class="fil0" d="M826409 46263c22909,-2671 45131,7073 57878,18781 13330,12245 19324,28014 21406,46640 6929,62021 -65142,94649 -113291,67607 -41045,-23054 -45266,-81877 -16389,-110640 14973,-14911 29037,-19892 50396,-22387zm224650 -18507c19949,-2046 39898,9744 48102,19344 5399,6319 9688,12121 13387,21158 11046,27001 6644,59665 -12695,78162 -2718,2604 -5327,5492 -9176,7848 -3885,2372 -6644,3901 -11072,5957 -8148,3782 -18161,5353 -28293,5787 -39009,1690 -67410,-31186 -68010,-69090 -165,-10406 1979,-20817 5466,-29011 3379,-7946 7859,-14291 13558,-20481 1762,-1912 6660,-5828 9455,-7554 14751,-9109 22429,-10395 39277,-12121zm-532225 142576c3436,558 7208,1318 10623,2015 10798,2206 9677,5022 10912,-3782 5244,-2676 16446,-5084 22858,-6784l140804 -38167c3901,-1054 21215,-6061 23746,-6200 1602,26593 11263,51409 29120,69658 44434,45421 124286,41396 162292,-16110 27611,-41778 9006,-67013 12860,-93668l25730 -2589c-925,29724 858,48598 12710,72370 8825,17712 27802,32581 46185,39427 18104,6748 37970,5528 57253,3017 10184,-1328 6877,-150 16410,-4976 18585,-9414 35702,-23416 44418,-41169 22191,-45214 12333,-90971 -25353,-122550 -15195,-12736 -37655,-22258 -64915,-20646 -20837,1230 -38213,8783 -53269,21545 -1049,889 -1932,1416 -2930,2439 -4180,4278 -9868,8732 -13036,13211 -3451,4883 -4009,6500 -11439,9961 -11630,5420 -42155,9207 -54401,2764 -6515,-3436 -10173,-9533 -17474,-14606 -2299,-1602 -4046,-2775 -6469,-4237 -4335,-2609 -9217,-5053 -14436,-6970 -39371,-14467 -82916,-7156 -112707,22284 -2020,2005 -3488,2930 -5497,5224 -1731,1979 -3074,3358 -4914,5771 -6417,8448 -2692,13961 -20486,21840 -10003,4428 -20062,8024 -30789,11987l-62600 22992c-10550,3844 -21158,7605 -31724,11093 -10643,3513 -21618,6324 -32793,9987 -8944,2924 -39412,12374 -45106,19091 -2945,3472 -5001,9941 -5585,15774z"/>
  <path class="fil0" d="M942355 561825c-16,1219 1524,6861 2222,7564 791,785 6681,1328 8091,1607 5477,1075 10597,2423 15061,4397 28799,12736 26955,43649 9713,62331 -6159,6675 -7187,5446 -11021,8758l31367 109571c17980,-1819 87245,-22010 107287,-29109l14043 -5146 -55170 -194677 -121594 34705z"/>
  <path class="fil0" d="M484438 935049c-6365,1442 -28179,16079 -35521,20357 -22790,13294 -45617,28055 -68692,41706 -5327,3152 -31285,17975 -33480,21333 10540,3761 22914,7166 33775,10401 11548,3446 22486,6954 33894,10375 11222,3369 24134,5947 35764,8499 70624,15511 127928,18326 201869,18461l10762 -114c-3317,-1731 -10654,-3524 -14668,-4790 -40115,-12679 -56100,-21974 -89090,-46098 -9553,-6980 -13671,-11227 -21457,-17453l-19556 -18843c-1752,-1767 -2640,-3353 -4593,-5151 -5286,-4857 -26996,-32984 -29006,-38683z"/>
  <path class="fil0" d="M828821 54256c-26459,2273 -49533,14627 -58534,37851 -6593,17009 -5833,37784 1752,54034 26955,57769 130811,39355 125598,-31750 -770,-10530 -2625,-17272 -6247,-25839 -2744,-6484 -9496,-14978 -14033,-18543 -6345,-4986 -11015,-8411 -20367,-11734 -8112,-2883 -18817,-4826 -28169,-4020z"/>
  <path class="fil0" d="M991749 99336c1287,17970 6737,29797 17985,42052 15629,17040 44796,21297 67994,10628 3679,-1690 6438,-3152 9574,-5492 1354,-1013 3302,-2330 4464,-3343 2904,-2516 7698,-8592 9987,-12385 6448,-10705 9140,-23245 8442,-36338 -1013,-18936 -8897,-32556 -17768,-42569 -2108,-2382 -5280,-4676 -8231,-6836 -23193,-16993 -63122,-9471 -80927,14023 -1008,1323 -1969,2707 -2971,4314 -6314,10070 -9440,23524 -8551,35945z"/>
  <path class="fil0" d="M1084900 533920c1163,6458 4294,15583 6143,22207 2072,7404 4268,15046 6314,22377 2330,8329 9946,38234 13211,43561 6484,-1602 14668,1488 21819,2268 7399,806 15898,1147 23483,1214 7895,67 15521,-357 23168,-1669 7182,-1235 14250,-2878 21711,-3550l-21282 -57299c-4934,-13206 -24134,-47544 -25792,-53011l-36555 10116c-11728,4273 -20538,10147 -32220,13785z"/>
  <path class="fil0" d="M1069622 517164l59231 209201c-4769,1597 -10437,4650 -15872,6546 -23989,8380 -99940,31403 -121144,32184 -4547,-17562 -9967,-34731 -14973,-52453 -4898,-17340 -10003,-34767 -14984,-52137l-22537 -78622c-2413,-8499 -5394,-17195 -7569,-25854l137848 -38864zm-9352 -6758c-8355,636 -17061,3462 -24470,5730l-71099 20822c-7704,2108 -15976,4211 -23555,6603 -10695,3374 -12245,6851 -9424,19179 2666,11625 9569,35423 13103,48164 2180,7884 4314,15733 6489,23695 1963,7182 4071,17143 6820,23788 13873,33486 26831,107964 38430,129866 894,1690 1726,3570 2826,4939 1493,1855 2676,1566 6670,1095 27637,-3250 94272,-24681 125030,-34503 2547,-811 3002,-1132 3751,-4066 3519,-13883 -8618,-50097 -12586,-63008 -4412,-14374 -14823,-44754 -16554,-59206 -899,-7507 -1912,-5689 -4345,-11315 -2697,-6252 -4898,-16441 -6929,-23715 -6407,-22945 -14348,-49058 -20052,-71859 -2067,-8272 -4449,-16937 -14105,-16208z"/>
  <path class="fil0" d="M592567 119868c7714,-1628 50334,-17577 58069,-20481 19148,-7192 38404,-14023 57712,-21065 7399,-2697 22728,-8437 26149,-13263 3095,-4361 4862,-13330 16415,-22966 1865,-1555 3157,-3214 5074,-4650 1896,-1426 3436,-2955 5322,-4397 3596,-2749 7280,-5875 11610,-8339 9130,-5193 10390,-5725 19876,-9300 2475,-930 5720,-1416 7683,-2630 -15505,-274 -50122,8417 -65499,12886 -35826,10416 -81221,36115 -107757,59547l-7786 6789c-6712,5565 -23054,21426 -26867,27869z"/>
  <path class="fil0" d="M1207305 614872c5410,-1777 10752,-7523 13651,-11300 3503,-4557 6112,-10339 8070,-16756 4056,-13273 3565,-30045 -1839,-42316 -11356,-25766 -29166,-34286 -64682,-34782l12731 24971c3911,8050 8639,16523 11961,25472 3384,9114 6582,18419 9905,27539l10204 27172z"/>
  <path class="fil0" d="M55207 854144c-1183,-1276 -16937,-23617 -17081,-24072 -233,2873 -651,4898 -1147,7642 -610,3369 -1643,4841 16,6975 5477,7058 10401,13330 17360,19148 3271,2733 7388,5425 10091,8070 284,-3767 -1033,-13284 -1405,-17763 -1478,-17815 67,-38017 -1163,-57749 -708,-11356 -5244,-20894 -8117,-31155 -4831,-17267 -3229,-22852 -5420,-34054 -6825,13211 -14271,47059 -12436,64548 930,8861 6717,20884 9734,29156l9569 29254z"/>
  <path class="fil0" d="M108811 842007c-775,-9460 -3002,-18704 -3281,-28748 -832,-30076 4945,-23364 -3591,-59237 -1059,-4443 -5187,-23638 -6701,-25932 -7352,16869 -21251,43716 -17861,63158 1721,9863 23571,43364 31434,50758z"/>
  <path class="fil0" d="M134190 919906c-832,-2330 -2294,-4128 -3291,-6660l-8070 -21607c-4035,-9455 -8339,-18182 -12245,-27606 -3116,-7533 -1839,-98 -10018,-9465 -7063,-8086 -16782,-22103 -22527,-31930l-1524 -2423c-388,-496 -450,-543 -791,-884 31,14281 713,40404 6241,53357 4955,11599 11300,10127 12240,17422 300,2351 171,2000 1566,3312 6422,6030 18218,14178 25870,18869l12550 7616z"/>
  <path class="fil0" d="M0 727280c3963,-7683 11935,-39407 17670,-53336 3994,-9708 14105,-23581 20419,-32602 2496,-3560 4805,-7244 7326,-10385l-9450 27730c-1168,3064 -2718,5947 -3601,9145 2046,-1524 10550,-11796 13273,-15051 785,-935 1349,-1349 2093,-2268l22351 -26779c1509,-2325 1436,-3188 3085,-4454 1266,-982 2635,-3172 3575,-4438l7698 -8840c2707,-2651 5482,-5570 8158,-7983l-5032 1721 3374 -10509 3746 -785c-589,-1059 31,-403 -1669,-1101 1168,-966 2165,-2186 3451,-2971 -7394,1932 -29135,16916 -36508,22914 -11501,9352 -19928,17748 -28929,30897 -16053,23462 -30680,52153 -31031,89095z"/>
  <path class="fil0" d="M66537 764697c6479,-20310 8014,-30871 19448,-51135 3203,-5683 5353,-10566 5244,-18487l-563 -30721c-1581,1018 -2661,2527 -4030,4154 -3420,4071 -7636,7926 -12483,13769 -3658,4418 -11429,14095 -12870,21680 -1948,10251 -1979,21731 -878,32106 739,6944 3002,24139 6133,28634z"/>
  <path class="fil0" d="M115151 752938c8096,-17216 8184,-17665 19463,-33057 10385,-14183 7549,-24728 6603,-44573l-17391 12385c-5487,4237 -9455,10091 -13609,16554 -5125,7967 -3803,15748 -2124,25611 837,4919 4666,20155 7058,23080z"/>
  <path class="fil0" d="M964763 37087c-3524,-2769 -18058,-8034 -23612,-9961 -8566,-2971 -17071,-5585 -26030,-8039 -17298,-4728 -41076,-7988 -60151,-8339l1648 698c3668,1147 7998,1746 13020,3560 48133,17391 27735,31801 64961,29972 9600,-470 24583,-2506 30163,-7890z"/>
  <path class="fil0" d="M24170 771450c4278,-19324 6221,-38704 14048,-55558 10587,-22801 7931,-15247 12850,-39215 909,-4433 2837,-10158 3364,-14090 -3503,2361 -14808,14829 -18301,19603 -12984,17701 -19360,33971 -18450,57526 279,7259 3436,26805 6489,31734z"/>
  <path class="fil0" d="M951629 303360l26319 54220 12524 -2992c713,-12452 -3767,-32380 -7156,-44749 -1250,-4552 -3276,-9274 -4309,-13361l-27379 6882z"/>
  <path class="fil0" d="M104466 688632c3529,-3167 9026,-9739 12328,-12829 10876,-10184 12808,-10137 21132,-16802 2981,-2387 3451,-4144 4542,-8122 1380,-5043 4371,-15552 4862,-20409 -8572,1953 -29249,10401 -36296,15237 -8174,5611 -9636,30887 -6567,42925z"/>
  <path class="fil0" d="M980873 600664c-3338,-13893 -17644,-20434 -33909,-22181l16947 59583c10282,-4495 20584,-22300 16962,-37402z"/>
  <polygon class="fil0" points="1013408,347747 1024486,345200 1023680,285710 998518,290789 "/>
  <path class="fil0" d="M923528 1027301c3141,4960 6836,6830 13139,9047 16714,5885 36673,-7249 37144,-26449 -8479,-987 -24599,-1721 -31734,1447 -2738,1214 -17293,13671 -18549,15955z"/>
  <path class="fil0" d="M154997 665894l517 29843c7590,-5415 6381,-9026 26118,-21240 4826,-2986 10271,-5652 15175,-8654 3358,-2056 4123,-2242 5017,-6696 646,-3203 1323,-7337 1555,-10721 -9145,1488 -26733,9099 -36369,12912 -3477,1380 -8918,2847 -12013,4557z"/>
  <path class="fil0" d="M147335 571446c3364,258 8050,-475 12095,-258 3973,212 8442,419 12302,801l-909 729c-7006,5074 -24609,12524 -32349,19716l-8959 8541c2124,-212 6701,-2175 9243,-2904 11604,-3312 19225,-5632 32116,-6779 5260,-470 2320,-5 8789,-3865l24289 -15123c-11134,-3916 -47797,-7864 -56617,-858z"/>
  <path class="fil0" d="M156505 648482c3617,-1132 8236,-3467 12131,-4965 4252,-1633 8582,-3048 13030,-4469 2904,-930 27120,-7285 27146,-7301 1400,-1225 2072,-4087 2811,-6035 811,-2134 1891,-4459 2387,-6546 -12168,470 -27714,1922 -39371,4077 -8194,1514 -9569,2330 -13175,8225 -2583,4226 -4557,11170 -4960,17014z"/>
  <path class="fil0" d="M22579 824796c1442,-25136 -7151,-41107 -10835,-60353 -630,-3296 -2625,-20362 -3090,-21339 -1354,2248 -2986,9693 -5466,15092 -537,1163 -2578,4438 -2656,4691 -450,1509 4392,19711 5244,22589 3389,11424 10897,30897 16802,39319z"/>
  <path class="fil0" d="M173902 609664c5952,-351 40704,-3668 46780,-5032 3271,-734 3364,-1607 4955,-3813 1338,-1860 3090,-3472 3849,-4945 -11331,-589 -38125,-2630 -47544,4046 -2470,1752 -6624,6386 -8039,9744z"/>
  <path class="fil0" d="M1064941 983462c78,83 207,93 243,243 36,150 191,191 243,238 11687,10333 35397,5895 38430,-18130 -12447,1757 -33532,10705 -38916,17650z"/>
  <path class="fil0" d="M65044 670993l19701 -22858c3513,-3591 8256,-6133 10881,-10545 1860,-3141 6050,-10953 6918,-14410 -6210,2330 -16844,9491 -22119,14792 -1183,1188 -1664,1312 -2687,2661 -6639,8716 -11191,18678 -12695,30360z"/>
  <path class="fil0" d="M115373 626275c16306,-7848 32540,-6474 40781,-17123 977,-1256 1173,-1617 2041,-2826 1033,-1436 2981,-3777 3782,-5492 -9987,1545 -19231,4598 -28355,7657 -8349,2806 -14643,9920 -18249,17784z"/>
  <path class="fil0" d="M226019 627990c14875,-1555 31899,-5079 47694,-5363l7104 -971 -30969 -2403c-13842,-1245 -18910,-2170 -23829,8737z"/>
  <path class="fil0" d="M202717 582694l41360 553c-6004,-3823 -13129,-3885 -20956,-4459 -7239,-532 -14777,-1715 -20403,3906z"/>
  <path class="fil0" d="M103293 607737c7998,-2392 17402,-9062 22238,-14627l11491 -10256c-11439,3302 -21602,13413 -30039,20884 -718,641 -1095,940 -1808,1586 -1323,1199 -1157,863 -1881,2413z"/>
 </g>
</svg>
